<svg xmlns="http://www.w3.org/2000/svg" viewBox="0 0 18.06 17.66"><defs><style>.cls-1{fill:#b6b6b6;}</style></defs><title>Corporate-CoachesHub-Logout</title><g id="Layer_2" data-name="Layer 2"><g id="Layer_1-2" data-name="Layer 1"><path class="cls-1" d="M12.65,3.93v-3A.89.89,0,0,0,11.77,0H.88A.89.89,0,0,0,0,.88V13.36a.9.9,0,0,0,.47.78l6.71,3.47a.45.45,0,0,0,.65-.4V13.83h3.94a.89.89,0,0,0,.88-.88V8.12H10.88v3.5a.43.43,0,0,1-.44.44H7.84V4.57a.9.9,0,0,0-.47-.78l-4-2h7a.43.43,0,0,1,.44.44V3.94h1.77Zm0,0"/><path class="cls-1" d="M14.92,2.49l2.87,2.87a.88.88,0,0,1,0,1.28L14.92,9.5a.9.9,0,0,1-1.29,0,.94.94,0,0,1,0-1.29l1.29-1.28h-5a.87.87,0,0,1-.66-.29,1,1,0,0,1,.22-1.51A.93.93,0,0,1,9.93,5h5s-1.28-1.28-1.29-1.28a.92.92,0,0,1,0-1.28.91.91,0,0,1,1.29,0Zm0,0"/></g></g></svg>