<svg xmlns="http://www.w3.org/2000/svg" viewBox="0 0 19.14 18.75"><defs><style>.cls-1{fill:#b6b6b6;}</style></defs><title>Corporate-CoachesHub-Setting</title><g id="Layer_2" data-name="Layer 2"><g id="Layer_1-2" data-name="Layer 1"><path class="cls-1" d="M16.6,7.07l-.09,0-.36-.85,0-.09c1.08-2.44,1-2.52.82-2.69L15.58,2a.38.38,0,0,0-.25-.1,9.18,9.18,0,0,0-2.45,1l-.08,0-.88-.35,0-.09C10.89,0,10.79,0,10.54,0h-2c-.25,0-.36,0-1.28,2.47l0,.09-.87.35-.08,0A13.38,13.38,0,0,0,3.74,2a.38.38,0,0,0-.25.1L2.05,3.48c-.18.18-.26.26.88,2.65l0,.09-.36.85-.09,0C0,8.07,0,8.17,0,8.42v2c0,.25,0,.36,2.53,1.27l.09,0,.36.85,0,.09c-1.08,2.44-1,2.51-.83,2.69l1.44,1.4a.39.39,0,0,0,.25.1,9.21,9.21,0,0,0,2.45-1l.08,0,.88.35,0,.09c1,2.47,1.1,2.47,1.35,2.47h2c.25,0,.36,0,1.29-2.48l0-.09.87-.35.08,0a13.28,13.28,0,0,0,2.49.91.39.39,0,0,0,.25-.1l1.44-1.41c.18-.18.26-.25-.88-2.64l0-.09.36-.85.09,0c2.53-1,2.53-1.08,2.53-1.33v-2c0-.25,0-.36-2.53-1.26Zm-7,5.52a3.22,3.22,0,1,1,3.29-3.22A3.26,3.26,0,0,1,9.57,12.6Zm0,0"/></g></g></svg>